<svg fill="#000000" xmlns="http://www.w3.org/2000/svg"  viewBox="0 0 48 48" width="48px" height="48px"><path d="M 8.5 4 C 6.019 4 4 6.019 4 8.5 L 4 34.5 C 4 36.981 6.019 39 8.5 39 L 34.5 39 C 36.981 39 39 36.981 39 34.5 L 39 8.5 C 39 6.019 36.981 4 34.5 4 L 8.5 4 z M 41 9.2753906 L 41 35.5 C 41 38.532 38.533 41 35.5 41 L 9.2753906 41 C 9.8963906 42.742 11.547 44 13.5 44 L 35.5 44 C 40.187 44 44 40.187 44 35.5 L 44 13.5 C 44 11.547 42.742 9.8973906 41 9.2753906 z M 28.498047 15 C 28.881797 15 29.265594 15.146453 29.558594 15.439453 C 30.144594 16.025453 30.145547 16.974547 29.560547 17.560547 L 20.560547 26.560547 C 20.267547 26.853547 19.884 27 19.5 27 C 19.116 27 18.732453 26.853547 18.439453 26.560547 L 14.439453 22.560547 C 13.853453 21.974547 13.853453 21.025453 14.439453 20.439453 C 15.025453 19.853453 15.974547 19.853453 16.560547 20.439453 L 19.498047 23.378906 L 27.4375 15.439453 C 27.7305 15.146453 28.114297 15 28.498047 15 z"/></svg>